<svg id="Layer_1" data-name="Layer 1" xmlns="http://www.w3.org/2000/svg" viewBox="0 0 73.48 68.6"><defs><style>.cls-1{fill:#a967d3;}</style></defs><title>reapsow</title><g id="pMVxIP.tif"><path class="cls-1" d="M15.35,84.27c1.28-2.11,2.85-3.77,5.59-3.71.27,0,.59-.28.8-.51,3-3.19,4.48-3.48,8.13-1.58,3.45-5.18,9.73-6.28,14.39-.9a11.6,11.6,0,0,1,8-5.81,11.29,11.29,0,0,1,9.47,2.7c5.18-4.82,13-3.7,15.81,4.35,3.13-2,6.25-2.18,9.16.36a6.28,6.28,0,0,1,1.74,7.13h-73Z" transform="translate(-15.35 -17.71)"/><path class="cls-1" d="M50.91,59.69c.65-7.26,1.3-14.36,1.88-21.46a2.37,2.37,0,0,0-.67-1.54c-4.92-5.43-4.3-11.06,1.78-15.19a23.54,23.54,0,0,1,14.61-3.76c0,2.85.12,5.6,0,8.33a27.38,27.38,0,0,1-.95,6.81C66,37.46,62,39.38,57.09,38.08c.4-5.86,2.85-10.87,6.37-15.48A20.7,20.7,0,0,0,57,31.15c-3.27,7.37-3.52,15.16-3.1,23,.16,2.91.4,5.82.63,8.95l4.37-3.64c-.81-3.37.24-5.12,3.79-6.15,6.14-1.77,13.5,2,15.86,7.82-1.51,1.12-3,2.1-4.34,3.26-2.5,2.19-5.11,3.88-8.66,2.87a6.92,6.92,0,0,1-4.42-3.76c2.91-3,6.67-3.15,10.42-3.38-3.8-1.67-9.17-.79-12.59,1.9C55.07,65.1,53.88,69.11,54.73,74H51.22c.89-7.1-.74-13.34-6.88-17.44-1.8,1.56-3.4,3.37-5.37,4.57-4.58,2.79-9.49,2-13.15-1.92a33.27,33.27,0,0,1-2.63-3.37c-2.32-3.21-4.61-6.45-6.94-9.73,4.63-1.7,8.8-5.7,14.47-6a32,32,0,0,1,7.7.29c5.15,1,8.6,5,9.55,10.76-6.34-3.44-12.83-5.64-20-4.91C37.45,47.56,44.71,52.79,50.91,59.69Z" transform="translate(-15.35 -17.71)"/></g></svg>