<svg id="Layer_1" data-name="Layer 1" xmlns="http://www.w3.org/2000/svg" viewBox="0 0 72.15 79"><defs><style>.cls-1{fill:#87dab0;}</style></defs><title>improvement</title><g id="kNcaId.tif"><path class="cls-1" d="M13.85,60.2a5.2,5.2,0,0,0,.46-.37l27.94-28c.11-.11.21-.24.31-.36l8.33,8.33L70.63,20.09,65.51,15,68,14.35l16.13-3.9c.55-.13,1.1-.3,1.65-.46l.19.19c-.25.94-.52,1.88-.75,2.83Q83.17,21.55,81.1,30.1a2.79,2.79,0,0,1-.1.27l-4.76-4.77L51,50.8l-8.32-8.33L19.38,65.75,19,65.37,14.19,60.6c-.11-.11-.23-.2-.35-.31S13.85,60.23,13.85,60.2Z" transform="translate(-13.85 -10)"/><path class="cls-1" d="M72.49,89q0-4,0-8,0-19.11,0-38.22v-.69H82.79v.59q0,22.84,0,45.68c0,.22,0,.44,0,.66Z" transform="translate(-13.85 -10)"/><path class="cls-1" d="M55.13,89c0-.22,0-.43,0-.65q0-18.17,0-36.34v-.68H65.46c0,.18,0,.36,0,.54q0,18.31,0,36.62c0,.17,0,.34,0,.51Z" transform="translate(-13.85 -10)"/><path class="cls-1" d="M37.4,89q0-4.53,0-9.05,0-9.24,0-18.48v-.59H47.72V89Z" transform="translate(-13.85 -10)"/><path class="cls-1" d="M20.32,89c0-.19,0-.37,0-.56q0-8.79,0-17.59v-.59H30.6v.59q0,8.77,0,17.54c0,.2,0,.4,0,.6Z" transform="translate(-13.85 -10)"/></g></svg>