<svg id="Layer_1" data-name="Layer 1" xmlns="http://www.w3.org/2000/svg" viewBox="0 0 73.58 43.82"><defs><style>.cls-1{fill:#87dab0;}</style></defs><title>infosharing</title><g id="y6TeP1.tif"><path class="cls-1" d="M49.09,62l2,.76a3.34,3.34,0,0,1-3.41,3H20.63a3.52,3.52,0,0,1-3.83-3.79q0-18.08,0-36.16a3.52,3.52,0,0,1,2.5-3.72,3,3,0,0,1,.84-.13H31.49c.13,0,.26,0,.45,0v2.17h-11c-1.49,0-1.83.35-1.83,1.86q0,17.93,0,35.85c0,1.2.38,1.6,1.58,1.6H47.43C48.51,63.44,48.76,63.21,49.09,62Z" transform="translate(-16.79 -21.91)"/><path class="cls-1" d="M72.83,22.21,90,39.39a3.31,3.31,0,0,1-.48.06c-4.41,0-8.82,0-13.22,0A3.38,3.38,0,0,1,72.81,36c0-4.46,0-8.92,0-13.38C72.81,22.49,72.83,22.37,72.83,22.21Z" transform="translate(-16.79 -21.91)"/><path class="cls-1" d="M33.67,22.2,50.86,39.4a3,3,0,0,1-.47.06c-4.33,0-8.66,0-13,0a3.41,3.41,0,0,1-3.72-3.76C33.67,31.21,33.67,26.72,33.67,22.2Z" transform="translate(-16.79 -21.91)"/><path class="cls-1" d="M88.14,41.24c2.21-.31,2.22-.31,2.22,1.73q0,9.54,0,19.09a3.48,3.48,0,0,1-3.69,3.66h-27A3.37,3.37,0,0,1,56.1,63l2.07-.6c.27,1,1,1.1,1.94,1.09q13.18,0,26.36,0c1.28,0,1.67-.4,1.67-1.68q0-9.78,0-19.56C88.14,41.89,88.14,41.58,88.14,41.24Z" transform="translate(-16.79 -21.91)"/><path class="cls-1" d="M58.21,42.22a19.08,19.08,0,0,1-2-.77,1,1,0,0,1-.32-.74c0-3.34,0-6.68,0-10,0-1.7,0-3.39,0-5.09a3.46,3.46,0,0,1,3.66-3.69H71.09v2.23H60c-1.41,0-1.75.36-1.75,1.77q0,7.43,0,14.87C58.21,41.24,58.21,41.7,58.21,42.22Z" transform="translate(-16.79 -21.91)"/><path class="cls-1" d="M31.34,42.93h8.37c.18,0,.41-.07.54,0s.71.5.68.69-.42.56-.69.77c-.12.09-.35,0-.54,0H22.87c-.18,0-.42.06-.54,0s-.64-.49-.64-.74.37-.56.66-.71a2,2,0,0,1,.85,0Z" transform="translate(-16.79 -21.91)"/><path class="cls-1" d="M75.81,42.93h8.45c.57,0,1.14.05,1.15.73s-.54.78-1.12.77c-1.85,0-3.7,0-5.55,0H67.48c-.21,0-.47.07-.61,0a5.67,5.67,0,0,1-.76-.75,3.88,3.88,0,0,1,.8-.7,2.1,2.1,0,0,1,.85,0Z" transform="translate(-16.79 -21.91)"/><path class="cls-1" d="M31.31,48.35H22.94c-.23,0-.53.06-.69,0s-.57-.48-.56-.72.34-.52.6-.7.4,0,.61,0H39.8c.13,0,.3-.05.38,0,.28.22.53.48.8.72-.27.26-.53.7-.83.74a25.27,25.27,0,0,1-2.73,0h-6.1Z" transform="translate(-16.79 -21.91)"/><path class="cls-1" d="M75.69,48.34H67.32c-.59,0-1.2,0-1.19-.77s.59-.74,1.15-.74h16.9c.16,0,.36-.06.46,0a9.17,9.17,0,0,1,.8.71c-.27.26-.53.7-.83.73a27.15,27.15,0,0,1-2.81,0Z" transform="translate(-16.79 -21.91)"/><path class="cls-1" d="M31.27,52.26H23c-.21,0-.47.07-.61,0s-.7-.5-.67-.69.42-.55.7-.76c.12-.09.35,0,.54,0H39.6c.21,0,.47-.07.61,0a5.68,5.68,0,0,1,.76.74,9,9,0,0,1-.79.72c-.1.07-.3,0-.46,0Z" transform="translate(-16.79 -21.91)"/><path class="cls-1" d="M75.73,52.26H67.36c-.18,0-.42.06-.54,0s-.7-.51-.67-.7.42-.56.71-.76.41,0,.61,0H84.54c.52,0,.9.24.88.77s-.41.74-.92.73H75.73Z" transform="translate(-16.79 -21.91)"/><path class="cls-1" d="M31.37,54.67h8.45c.57,0,1.14.07,1.13.76s-.57.75-1.14.75h-17c-.13,0-.3.05-.38,0-.29-.21-.54-.47-.81-.7.27-.26.51-.7.81-.75a13,13,0,0,1,2.11,0Z" transform="translate(-16.79 -21.91)"/><path class="cls-1" d="M75.73,56.17H67.44c-.18,0-.41.07-.54,0a7.2,7.2,0,0,1-.79-.72c.27-.26.53-.69.83-.73a18.82,18.82,0,0,1,2.42,0H84.54c.52,0,.95.25.86.76-.05.29-.51.55-.83.72s-.51,0-.77,0H75.73Z" transform="translate(-16.79 -21.91)"/><path class="cls-1" d="M31.39,58.58h8.45c.58,0,1.12.09,1.11.77s-.53.74-1.08.73H22.74c-.55,0-1.07-.12-1.07-.74s.54-.77,1.12-.77Z" transform="translate(-16.79 -21.91)"/><path class="cls-1" d="M75.81,58.58H84.1c.16,0,.35-.06.46,0,.31.21.78.44.83.72.09.5-.34.76-.86.77H67.4c-.18,0-.42.07-.54,0a7,7,0,0,1-.76-.75,9,9,0,0,1,.79-.72c.1-.07.3,0,.46,0Z" transform="translate(-16.79 -21.91)"/><path class="cls-1" d="M56,55.4V45.87c.79.44,1.47.79,2.1,1.2.13.09.14.42.14.65,0,1.77,0,3.54,0,5.31a1.54,1.54,0,0,1-.45,1A22.23,22.23,0,0,1,56,55.4Z" transform="translate(-16.79 -21.91)"/><path class="cls-1" d="M51.17,58.26c-.76-.4-1.39-.69-2-1.06-.14-.09-.19-.41-.19-.62,0-1.9,0-3.8,0-5.7a1.42,1.42,0,0,1,.44-.9c.49-.45,1.05-.82,1.71-1.31Z" transform="translate(-16.79 -21.91)"/></g><g id="iDlAiT.tif"><path class="cls-1" d="M52.68,62c-.67-.15-1.36-.25-2-.46A9.66,9.66,0,0,1,45.1,57.1L45,56.86s0-.08-.07-.19c.66,0,1.3,0,1.94,0,.12,0,.24.2.34.33a8,8,0,0,0,13.68-1.48,23.13,23.13,0,0,0,.81-2.46H59.83l2.68-3.58L65.16,53H63.43a20.73,20.73,0,0,1-.52,2.17,9.65,9.65,0,0,1-8.11,6.72,2.82,2.82,0,0,0-.3.08Z" transform="translate(-16.79 -21.91)"/><path class="cls-1" d="M54.49,42.35c.67.15,1.36.25,2,.46a9.75,9.75,0,0,1,5.29,4,9.14,9.14,0,0,0-1.4,0A1.52,1.52,0,0,1,59,46.27,8,8,0,0,0,45.86,50c0,.1,0,.2-.08.37h1.56L44.67,54,42,50.39c.59,0,1.07,0,1.56,0,.26,0,.39,0,.46-.35a9.77,9.77,0,0,1,8.46-7.63,1,1,0,0,0,.21-.07Z" transform="translate(-16.79 -21.91)"/></g></svg>