<svg id="Layer_1" data-name="Layer 1" xmlns="http://www.w3.org/2000/svg" viewBox="0 0 62.94 40.32"><defs><style>.cls-1{fill:#27da90;}</style></defs><title>leadership</title><g id="DOAQda.tif"><path class="cls-1" d="M77.41,64.65c2-3.17,4.05-6.33,6.08-9.49.18-.28.32-.57.55-1H21.11c0,.18,0,.28,0,.34Q24.55,59.59,28,64.65Z" transform="translate(-21.11 -24.34)"/><path class="cls-1" d="M66.53,52.52H38.26c.89-3.37,1.37-6.65,3.9-9a5.9,5.9,0,0,1,2.31-1.28,28.48,28.48,0,0,1,16.22.07,6.35,6.35,0,0,1,2.45,1.54C64.76,45.35,66.56,50.17,66.53,52.52Z" transform="translate(-21.11 -24.34)"/><path class="cls-1" d="M60.26,32.19a7.75,7.75,0,1,1-7.73-7.85A7.78,7.78,0,0,1,60.26,32.19Z" transform="translate(-21.11 -24.34)"/><path class="cls-1" d="M31.8,41.81l1.68,2.13a6.6,6.6,0,0,1-1.08.85,3,3,0,0,0-1.6,3.08c0,1.48.12,3,.19,4.55H29.63l-.28-5.22c-.5.35-1,.66-1.42,1-.69.52-1.4.73-2-.06a1.39,1.39,0,0,1,.3-2c.87-.75,1.81-1.42,2.72-2.11Z" transform="translate(-21.11 -24.34)"/><path class="cls-1" d="M36,42.87c-2.45,0-3.47-1.35-2.57-2.93a7.58,7.58,0,0,1,2.44-2.47c1.21-.78,2.53-.24,3.34,1.07a2.06,2.06,0,0,1-.72,3.08A16.13,16.13,0,0,1,36,42.87Z" transform="translate(-21.11 -24.34)"/></g></svg>