<svg id="Layer_1" data-name="Layer 1" xmlns="http://www.w3.org/2000/svg" viewBox="0 0 81.12 71"><defs><style>.cls-1{fill:#27da90;}</style></defs><title>media</title><g id="OoU9GI.tif"><path class="cls-1" d="M68.79,20.22c1.09-1.67,2.19-3.33,3.28-5,.21-.32.41-.12.58,0,.92.68,1.86,1.35,2.75,2.07A40.72,40.72,0,0,1,89.72,56a39.81,39.81,0,0,1-5,13.37A40.8,40.8,0,0,1,72.6,82.27c-.19.13-.39.24-.62.39L70.6,80.59c-.62-.94-1.23-1.9-1.87-2.83-.21-.31-.18-.48.14-.69a34,34,0,0,0,8.38-8,34.2,34.2,0,0,0,.27-40.3,33.56,33.56,0,0,0-8.28-8.15l-.37-.28A.62.62,0,0,1,68.79,20.22Z" transform="translate(-9.25 -15)"/><path class="cls-1" d="M31.13,77.43,27.7,82.65A40.2,40.2,0,0,1,9.26,47.72,40.67,40.67,0,0,1,27.45,15l2.32,3.49c.32.48.61,1,1,1.43s.15.46-.14.66a34.37,34.37,0,0,0-13.4,18.12A33.9,33.9,0,0,0,23.91,71a34.82,34.82,0,0,0,6.94,6.15l.22.17S31.1,77.37,31.13,77.43Z" transform="translate(-9.25 -15)"/><path class="cls-1" d="M36.9,29.34C30.21,34.22,26.49,40.65,26.54,49s3.78,14.71,10.53,19.48L35.9,70.2,34.68,72c-1-.76-2-1.44-2.88-2.22a27.38,27.38,0,0,1-7.45-10.2,27.88,27.88,0,0,1-2.14-9.19,27.06,27.06,0,0,1,1.16-9.64A27.85,27.85,0,0,1,33.55,26.46c.95-.72,1-.71,1.63.28S36.32,28.47,36.9,29.34Z" transform="translate(-9.25 -15)"/><path class="cls-1" d="M65,72l-2.4-3.65c.13-.1.24-.2.36-.28A23.47,23.47,0,0,0,67.85,34a21.29,21.29,0,0,0-4.69-4.35c-.29-.2-.36-.34-.14-.66.64-.93,1.26-1.88,1.86-2.84.21-.34.39-.33.7-.11a28.2,28.2,0,0,1,7.64,8,27.77,27.77,0,0,1,2.71,23.85,27.13,27.13,0,0,1-7.64,11.49C67.27,70.33,66.15,71.14,65,72Z" transform="translate(-9.25 -15)"/><path class="cls-1" d="M49.77,86c-.73,0-1.46,0-2.19,0-.29,0-.37-.09-.35-.38q.25-4.76.48-9.52.26-5.34.51-10.68.28-5.92.56-11.84c0-.59.06-1.18,0-1.77a.79.79,0,0,0-.29-.55,2.58,2.58,0,0,1-1.29-2.42,2.58,2.58,0,1,1,4.52,1.87,1.6,1.6,0,0,1-.48.43c-.46.2-.49.54-.47,1,.14,3,.24,5.95.37,8.92.19,4.24.41,8.49.62,12.73.19,3.92.38,7.84.58,11.75,0,.38-.09.49-.46.48-.71,0-1.43,0-2.14,0Z" transform="translate(-9.25 -15)"/><path class="cls-1" d="M42,60.92l-1.46,2.22c-4.93-3.37-7.71-8-7.83-13.9-.13-6.17,2.59-11,7.66-14.6.47.72.93,1.38,1.34,2.06,0,.07-.11.32-.22.4a14.75,14.75,0,0,0-4,4.27,13.73,13.73,0,0,0-2.09,7.92,14,14,0,0,0,6.14,11.28Z" transform="translate(-9.25 -15)"/><path class="cls-1" d="M57.88,36.83c.41-.63.82-1.21,1.18-1.83.2-.34.36-.32.65-.11a17.17,17.17,0,0,1,5.61,6.7A15.91,15.91,0,0,1,66.91,48a16.73,16.73,0,0,1-7.42,14.86c-.1.07-.21.12-.37.21L57.69,60.9C61.85,58,64.22,54.08,64.26,49A14.21,14.21,0,0,0,57.88,36.83Z" transform="translate(-9.25 -15)"/><path class="cls-1" d="M45.62,55.44l-.77,1.16a9,9,0,0,1-4.34-7.11A9.34,9.34,0,0,1,44.61,41l.78,1.18A7.91,7.91,0,0,0,45.62,55.44Z" transform="translate(-9.25 -15)"/><path class="cls-1" d="M54.08,55.38a8,8,0,0,0,.27-13.15l.77-1.17a9.7,9.7,0,0,1,2.74,3,9.21,9.21,0,0,1-2.64,12.26c-.29.2-.45.19-.61-.12S54.27,55.67,54.08,55.38Z" transform="translate(-9.25 -15)"/></g></svg>