<svg id="Layer_1" data-name="Layer 1" xmlns="http://www.w3.org/2000/svg" viewBox="0 0 67.7 57.5"><defs><style>.cls-1,.cls-2{fill:#a967d3;}.cls-2{stroke:#fff;stroke-miterlimit:10;}</style></defs><title>manpower</title><circle class="cls-1" cx="34.07" cy="6.8" r="6.8"/><path class="cls-1" d="M64.7,48.8v.38A19.2,19.2,0,0,1,52.07,53.5a19.23,19.23,0,0,1-12.63-4.32V48.8c0-8.27,5.66-15,12.63-15S64.7,40.53,64.7,48.8Z" transform="translate(-18 -19)"/><circle class="cls-2" cx="14.84" cy="24.93" r="8"/><path class="cls-1" d="M47.7,71v.45c-3.51,3.1-8.86,5.08-14.85,5.08s-11.34-2-14.85-5.08V71c0-9.72,6.65-17.61,14.86-17.61S47.7,61.25,47.7,71Z" transform="translate(-18 -19)"/><circle class="cls-2" cx="52.84" cy="24.93" r="8"/><path class="cls-1" d="M85.7,71v.45c-3.51,3.1-8.86,5.08-14.85,5.08s-11.34-2-14.85-5.08V71c0-9.72,6.65-17.61,14.86-17.61S85.7,61.25,85.7,71Z" transform="translate(-18 -19)"/></svg>