<?xml version="1.0" encoding="utf-8"?>
<!-- Generator: Adobe Illustrator 21.1.0, SVG Export Plug-In . SVG Version: 6.00 Build 0)  -->
<svg version="1.1" id="Layer_1" xmlns="http://www.w3.org/2000/svg" xmlns:xlink="http://www.w3.org/1999/xlink" x="0px" y="0px"
	 viewBox="0 0 201.2 201.2" style="enable-background:new 0 0 201.2 201.2;" xml:space="preserve">
<style type="text/css">
	.st0{fill:#a967d3;stroke:#FFFFFF;stroke-miterlimit:10;}
	.st1{fill:#a967d3;}
	.st2{fill:#FFFFFF;}
</style>
<title>knowyourcomm</title>
<circle class="st0" cx="57.6" cy="61.2" r="15.8"/>
<path class="st0" d="M87,114.7c0,0.3,0,0.6,0,0.9c-7,6.1-17.5,10-29.4,10s-22.4-3.9-29.4-10c0-0.3,0-0.6,0-0.9
	c0-19.2,13.2-34.9,29.4-34.9S87,95.4,87,114.7z"/>
<circle class="st0" cx="143.2" cy="61.2" r="15.8"/>
<path class="st0" d="M172.6,114.7c0,0.3,0,0.6,0,0.9c-7,6.1-17.5,10-29.4,10s-22.4-3.9-29.4-10c0-0.3,0-0.6,0-0.9
	c0-19.2,13.2-34.9,29.4-34.9S172.6,95.4,172.6,114.7z"/>
<g>
	<path class="st1" d="M16.9,108.1c-11.3,0-20.4-9.2-20.4-20.4s9.2-20.4,20.4-20.4s20.4,9.2,20.4,20.4
		C37.3,98.9,28.2,108.1,16.9,108.1z"/>
	<path class="st2" d="M16.9,68.9c10.4,0,18.8,8.4,18.8,18.8s-8.4,18.8-18.8,18.8S-1.8,98-1.8,87.7S6.5,68.9,16.9,68.9 M16.9,65.6
		c-12.1,0-22.1,9.9-22.1,22.1s9.9,22.1,22.1,22.1S39,99.8,39,87.7S29.1,65.6,16.9,65.6L16.9,65.6z"/>
</g>
<g>
	<path class="st1" d="M16.9,166.8c-13.9,0-27-4.5-35.9-12.2l-0.6-0.4v-1.8c0-23.6,16.3-42.9,36.4-42.9s36.4,19.2,36.4,42.9v1.8
		l-0.6,0.4C43.9,162.4,30.9,166.8,16.9,166.8z"/>
	<path class="st2" d="M16.9,111.1c19.2,0,34.8,18.4,34.8,41.3c0,0.3,0,0.7,0,1.1c-8.2,7.3-20.7,11.9-34.8,11.9s-26.5-4.6-34.8-11.9
		c0-0.3,0-0.7,0-1.1C-17.8,129.5-2.3,111.1,16.9,111.1 M16.9,107.8c-21,0-38.1,20-38.1,44.6v1.1v1.5l1.1,1
		c9.2,8.1,22.6,12.7,37,12.7s27.8-4.6,37-12.7l1.1-1v-1.5v-1.1C55,127.7,38,107.8,16.9,107.8L16.9,107.8z"/>
</g>
<g>
	<path class="st1" d="M100.6,115c-12.3,0-22.3-10-22.3-22.3s10-22.3,22.3-22.3s22.3,10,22.3,22.3S112.9,115,100.6,115z"/>
	<path class="st2" d="M100.6,72.2c11.3,0,20.5,9.2,20.5,20.5s-9.2,20.5-20.5,20.5s-20.5-9.2-20.5-20.5S89.3,72.2,100.6,72.2
		 M100.6,68.6c-13.3,0-24.1,10.9-24.1,24.1s10.9,24.1,24.1,24.1s24.1-10.9,24.1-24.1S113.9,68.6,100.6,68.6L100.6,68.6z"/>
</g>
<g>
	<path class="st1" d="M100.6,179.2c-15.2,0-29.6-4.9-39.2-13.4l-0.6-0.5v-1.9c0-25.8,17.9-46.9,39.8-46.9s39.8,21,39.8,46.9v1.9
		l-0.6,0.5C130.2,174.4,115.9,179.2,100.6,179.2z"/>
	<path class="st2" d="M100.6,118.3c21,0,38,20.1,38,45.1c0,0.4,0,0.7,0,1.2c-8.9,8-22.7,13-38,13s-28.9-5.1-38-13c0-0.4,0-0.7,0-1.2
		C62.6,138.4,79.6,118.3,100.6,118.3 M100.6,114.7c-22.9,0-41.6,21.8-41.6,48.7v1.2v1.7l1.2,1.1c10,8.8,24.7,13.9,40.4,13.9
		s30.4-5.1,40.4-13.9l1.2-1.1v-1.7v-1.2C142.2,136.5,123.5,114.7,100.6,114.7L100.6,114.7z"/>
</g>
<g>
	<path class="st1" d="M184.3,108.1c-11.3,0-20.4-9.2-20.4-20.4s9.2-20.4,20.4-20.4c11.3,0,20.4,9.2,20.4,20.4
		C204.7,98.9,195.5,108.1,184.3,108.1z"/>
	<path class="st2" d="M184.3,68.9c10.4,0,18.8,8.4,18.8,18.8s-8.4,18.8-18.8,18.8c-10.4,0-18.8-8.4-18.8-18.8S173.9,68.9,184.3,68.9
		 M184.3,65.6c-12.1,0-22.1,9.9-22.1,22.1s9.9,22.1,22.1,22.1s22.1-9.9,22.1-22.1S196.4,65.6,184.3,65.6L184.3,65.6z"/>
</g>
<g>
	<path class="st1" d="M184.3,166.8c-13.9,0-27-4.5-35.9-12.2l-0.6-0.4v-1.8c0-23.6,16.3-42.9,36.4-42.9s36.4,19.2,36.4,42.9v1.8
		l-0.6,0.4C211.3,162.4,198.2,166.8,184.3,166.8z"/>
	<path class="st2" d="M184.3,111.1c19.2,0,34.8,18.4,34.8,41.3c0,0.3,0,0.7,0,1.1c-8.2,7.3-20.7,11.9-34.8,11.9
		c-14,0-26.5-4.6-34.8-11.9c0-0.3,0-0.7,0-1.1C149.5,129.5,165.1,111.1,184.3,111.1 M184.3,107.8c-21,0-38.1,20-38.1,44.6v1.1v1.5
		l1.1,1c9.2,8.1,22.6,12.7,37,12.7c14.3,0,27.8-4.6,37-12.7l1.1-1v-1.5v-1.1C222.4,127.7,205.3,107.8,184.3,107.8L184.3,107.8z"/>
</g>
</svg>
