<svg id="Layer_1" data-name="Layer 1" xmlns="http://www.w3.org/2000/svg" viewBox="0 0 82.8 60.83"><defs><style>.cls-1{fill:#edac00;}</style></defs><title>communication</title><g id="Qyuefl.tif"><path class="cls-1" d="M10,76.39c.68-1,1.4-2,2-3,.92-1.57,1.81-3.15,2.61-4.78a2,2,0,0,0-.72-2.68C8.59,61.41,6.83,54.76,9.3,48.61c1.56-3.87,4.55-6.47,8-8.55,9-5.37,23.4-4.69,31.83,1.48,9.1,6.67,9.3,18.05.41,25-6.66,5.24-14.26,6.49-22.44,5.26a6.16,6.16,0,0,1-1.45-.25c-2.64-1.1-5-.21-7.27,1s-4.64,2.37-7,3.55c-.37.19-.76.36-1.14.54Z" transform="translate(-8.2 -15.87)"/><path class="cls-1" d="M85.21,57.41A27.61,27.61,0,0,1,81.41,56c-2.67-1.44-5.24-3.05-7.88-4.54A3.29,3.29,0,0,0,71.69,51a29.7,29.7,0,0,1-10.26-.36A2.31,2.31,0,0,1,59.59,49c-2.78-6.9-7.49-11.68-15-13.2a1.34,1.34,0,0,1-1.27-1.32A13.26,13.26,0,0,1,47,23.42c4.25-4.52,9.69-6.61,15.72-7.28a32.83,32.83,0,0,1,16.93,2.1c4.35,1.88,8.09,4.55,10.11,9,2.78,6.15.88,13.13-4.7,17.9-1.12,1-2.86,1.42-2.85,3.41a11.06,11.06,0,0,0,2.22,7.31c.28.34.57.67.85,1C85.27,56.92,85.25,57,85.21,57.41Z" transform="translate(-8.2 -15.87)"/></g></svg>