<svg id="Layer_1" data-name="Layer 1" xmlns="http://www.w3.org/2000/svg" viewBox="0 0 82.68 51.68"><defs><style>.cls-1{fill:#edac00;}</style></defs><title>knowmembers</title><g id="QcsJZ3.tif"><path class="cls-1" d="M8.36,72c0-6.51-.12-12.86,0-19.2A11.53,11.53,0,0,1,19,41.86a28.81,28.81,0,0,1,7,.27,11.12,11.12,0,0,1,9.17,10.29c.26,6.49.06,13,.06,19.61Z" transform="translate(-8.32 -20.39)"/><path class="cls-1" d="M91,72.07H64.14a4.72,4.72,0,0,1-.13-.79c0-6-.07-12,0-18A11.69,11.69,0,0,1,75.43,41.81a30.63,30.63,0,0,1,6.53.36,11.39,11.39,0,0,1,9,10.68C91.07,59.19,91,65.53,91,72.07Z" transform="translate(-8.32 -20.39)"/><path class="cls-1" d="M85.92,30a8.43,8.43,0,1,1-8.48-8.42A8.46,8.46,0,0,1,85.92,30Z" transform="translate(-8.32 -20.39)"/><path class="cls-1" d="M30.27,30.06a8.43,8.43,0,1,1-8.39-8.51A8.43,8.43,0,0,1,30.27,30.06Z" transform="translate(-8.32 -20.39)"/><path class="cls-1" d="M60.51,51.93H46.08V56.3l-.4.2-7-7.92L46,40.29v4.79H60.51Z" transform="translate(-8.32 -20.39)"/><path class="cls-1" d="M38.82,24.88H53.21V20.63l.41-.25,7,8L53.35,36.6V31.73H38.82Z" transform="translate(-8.32 -20.39)"/></g></svg>