<svg id="Layer_1" data-name="Layer 1" xmlns="http://www.w3.org/2000/svg" viewBox="0 0 130 143"><defs><style>.cls-1{fill:#fff;}.cls-2,.cls-3{fill:#a967d3;}.cls-3,.cls-4{stroke:#a967d3;stroke-miterlimit:10;}.cls-4{fill:none;}</style></defs><title>focusonissues</title><rect class="cls-1" x="0.5" y="0.5" width="129" height="142" rx="11.5" ry="11.5"/><path class="cls-2" d="M154.17,30.14a11,11,0,0,1,11,11v119a11,11,0,0,1-11,11h-106a11,11,0,0,1-11-11v-119a11,11,0,0,1,11-11h106m0-1h-106a12,12,0,0,0-12,12v119a12,12,0,0,0,12,12h106a12,12,0,0,0,12-12v-119a12,12,0,0,0-12-12Z" transform="translate(-36.17 -29.14)"/><rect class="cls-3" x="13" y="21" width="8" height="8"/><rect class="cls-3" x="13" y="44" width="8" height="8"/><rect class="cls-3" x="13" y="67" width="8" height="8"/><rect class="cls-3" x="13" y="90" width="8" height="8"/><rect class="cls-3" x="13" y="113" width="8" height="8"/><line class="cls-4" x1="29.5" y1="28.5" x2="112.5" y2="28.5"/><line class="cls-4" x1="30" y1="51.5" x2="113" y2="51.5"/><line class="cls-4" x1="30" y1="75.5" x2="113" y2="75.5"/><line class="cls-4" x1="30" y1="98.5" x2="113" y2="98.5"/><line class="cls-4" x1="30" y1="121.5" x2="113" y2="121.5"/></svg>