<svg id="Layer_1" data-name="Layer 1" xmlns="http://www.w3.org/2000/svg" viewBox="0 0 201.2 126"><defs><style>.cls-1{fill:#23a3d0;stroke:#fff;stroke-miterlimit:10;}</style></defs><title>knowyourcomm</title><circle class="cls-1" cx="58.98" cy="14.11" r="13.61"/><path class="cls-1" d="M130.61,128.29c0,.25,0,.51,0,.77-6,5.27-15.07,8.64-25.26,8.64s-19.29-3.36-25.26-8.64c0-.25,0-.51,0-.77,0-16.54,11.31-30,25.27-30S130.61,111.75,130.61,128.29Z" transform="translate(-46.36 -68.19)"/><circle class="cls-1" cx="142.22" cy="14.11" r="13.61"/><path class="cls-1" d="M213.85,128.29c0,.25,0,.51,0,.77-6,5.27-15.07,8.64-25.26,8.64s-19.29-3.36-25.26-8.64c0-.25,0-.51,0-.77,0-16.54,11.31-30,25.27-30S213.85,111.75,213.85,128.29Z" transform="translate(-46.36 -68.19)"/><circle class="cls-1" cx="27.6" cy="66.09" r="14.59"/><path class="cls-1" d="M101.06,183.61c0,.27,0,.55,0,.82-6.4,5.66-16.16,9.26-27.09,9.26s-20.68-3.61-27.09-9.26c0-.27,0-.55,0-.82,0-17.74,12.13-32.13,27.1-32.13S101.06,165.87,101.06,183.61Z" transform="translate(-46.36 -68.19)"/><circle class="cls-1" cx="100.6" cy="66.09" r="14.59"/><path class="cls-1" d="M174.06,183.61c0,.27,0,.55,0,.82-6.4,5.66-16.16,9.26-27.09,9.26s-20.68-3.61-27.09-9.26c0-.27,0-.55,0-.82,0-17.74,12.13-32.13,27.1-32.13S174.06,165.87,174.06,183.61Z" transform="translate(-46.36 -68.19)"/><circle class="cls-1" cx="173.6" cy="66.09" r="14.59"/><path class="cls-1" d="M247.06,183.61c0,.27,0,.55,0,.82-6.4,5.66-16.16,9.26-27.09,9.26s-20.68-3.61-27.09-9.26c0-.27,0-.55,0-.82,0-17.74,12.13-32.13,27.1-32.13S247.06,165.87,247.06,183.61Z" transform="translate(-46.36 -68.19)"/></svg>