<?xml version="1.0" encoding="utf-8"?>
<!-- Generator: Adobe Illustrator 21.1.0, SVG Export Plug-In . SVG Version: 6.00 Build 0)  -->
<svg version="1.1" id="Layer_1" xmlns="http://www.w3.org/2000/svg" xmlns:xlink="http://www.w3.org/1999/xlink" x="0px" y="0px"
	 viewBox="0 0 155.4 155.4" style="enable-background:new 0 0 155.4 155.4;" xml:space="preserve">
<style type="text/css">
	<!-- 87DAB0 -->
	.st0{fill:#27da90;}
	.st1{fill:none;stroke:#27da90;stroke-width:5;stroke-miterlimit:10;}
</style>
<title>talkitup</title>
<circle class="st0" cx="25" cy="66.5" r="19.3"/>
<path class="st0" d="M60.8,131.7c0,0.4,0,0.7,0,1.1C52.3,140.2,39.4,145,25,145s-27.3-4.8-35.8-12.2c0-0.4,0-0.7,0-1.1
	c0-23.4,16-42.4,35.8-42.4S60.8,108.2,60.8,131.7z"/>
<circle class="st0" cx="129.5" cy="66.5" r="19.3"/>
<path class="st0" d="M165.3,131.7c0,0.4,0,0.7,0,1.1c-8.5,7.5-21.4,12.2-35.8,12.2s-27.3-4.8-35.8-12.2c0-0.4,0-0.7,0-1.1
	c0-23.4,16-42.4,35.8-42.4S165.3,108.2,165.3,131.7z"/>
<g id="JDeBnV.tif">
	<path class="st1" d="M55.1,63.4c0.4-1.5,0.7-2.8,1.1-4.1c0.6-2.3,1.3-4.7,2-7c0.3-0.6,0.1-1.3-0.5-1.7c-3-2.2-5.2-5.2-6.5-8.7
		c-1.8-5.5-0.6-10.5,3-14.9c4.1-5,9.7-7.7,15.9-9.4c6.4-1.7,13.1-1.8,19.6-0.4c7.1,1.5,13.6,4.5,18.1,10.5c4.7,6.4,4.3,14-0.9,20
		c-4.1,4.6-9.3,7.2-15.1,8.8c-4.1,1.1-8.4,1.6-12.6,1.4c-1.1,0-2.3-0.1-3.4-0.3c-2.5-0.7-4.8,0-7.1,0.9c-4.2,1.6-8.5,3.2-12.7,4.7
		C55.6,63.4,55.4,63.4,55.1,63.4z"/>
</g>
</svg>
