<svg id="Layer_1" data-name="Layer 1" xmlns="http://www.w3.org/2000/svg" viewBox="0 0 155.41 113.87"><defs><style>.cls-1{fill:#87dab0;}.cls-2{fill:none;stroke:#87dab0;stroke-miterlimit:10;stroke-width:2px;}</style></defs><title>talkitup</title><circle class="cls-1" cx="31.07" cy="45.76" r="16.73"/><path class="cls-1" d="M84.13,147.33c0,.31,0,.63,0,.94-7.34,6.48-18.53,10.62-31.05,10.62S29.35,154.75,22,148.27c0-.31,0-.63,0-.94,0-20.34,13.91-36.83,31.07-36.83S84.13,127,84.13,147.33Z" transform="translate(-22 -45.02)"/><circle class="cls-1" cx="124.35" cy="45.76" r="16.73"/><path class="cls-1" d="M177.41,147.33c0,.31,0,.63,0,.94-7.34,6.48-18.53,10.62-31.05,10.62s-23.71-4.13-31.05-10.62c0-.31,0-.63,0-.94,0-20.34,13.91-36.83,31.07-36.83S177.41,127,177.41,147.33Z" transform="translate(-22 -45.02)"/><g id="JDeBnV.tif"><path class="cls-2" d="M80.21,88.14c.35-1.34.64-2.52,1-3.68.57-2.08,1.13-4.17,1.76-6.24a1.22,1.22,0,0,0-.46-1.52,16.61,16.61,0,0,1-5.77-7.79c-1.62-4.94-.54-9.38,2.69-13.31,3.69-4.49,8.66-6.92,14.18-8.36a37.52,37.52,0,0,1,17.52-.36c6.38,1.37,12.16,4,16.19,9.4,4.23,5.7,3.85,12.52-.84,17.85-3.64,4.13-8.32,6.48-13.54,7.87a36.69,36.69,0,0,1-11.29,1.25,13,13,0,0,1-3-.25c-2.27-.67-4.3,0-6.37.78-3.77,1.46-7.57,2.84-11.36,4.24A5.69,5.69,0,0,1,80.21,88.14Z" transform="translate(-22 -45.02)"/></g></svg>