<svg id="Layer_1" data-name="Layer 1" xmlns="http://www.w3.org/2000/svg" viewBox="0 0 77.33 81.56"><defs><style>.cls-1{fill:#23a3d0;stroke:#fff;stroke-miterlimit:10;}</style></defs><title>decisionmaking</title><g id="BBrGD9.tif"><path class="cls-1" d="M89,80.28,93,76,52.17,34.2l6.56-6L44.16,14.76,27.71,31.24,41.11,44.61,48,38.22Z" transform="translate(-16.37 -9.3)"/><path class="cls-1" d="M54.73,83.94,54.61,82H20.94l-.33,2.53a10.87,10.87,0,0,0-1.74.28,2.65,2.65,0,0,0-2,3,2.59,2.59,0,0,0,2.49,2.54,7,7,0,0,0,.87,0q17.46,0,34.92,0c2.7,0,4.37-2.26,3-4.16C57.48,85.27,56.14,84.84,54.73,83.94Z" transform="translate(-16.37 -9.3)"/><path class="cls-1" d="M44.86,11.53a13.83,13.83,0,0,0,1.51,2.32c4,4,8.06,7.84,12.08,11.78,1.15,1.13,2.48,1.46,3.63.37s.52-2.32-.51-3.35c-4.1-4.06-8.12-8.19-12.3-12.17a4.08,4.08,0,0,0-2.89-.66C45.87,9.87,45.44,10.85,44.86,11.53Z" transform="translate(-16.37 -9.3)"/><path class="cls-1" d="M24.81,31.74c-.7.53-1.75.94-1.86,1.52A3.58,3.58,0,0,0,23.57,36c2,2.21,4.12,4.23,6.21,6.31S34,46.47,36,48.56c1.15,1.16,2.66,1.47,3.54.2a3.56,3.56,0,0,0-.43-3.36C35.16,41.14,31,37.07,26.83,33A11.31,11.31,0,0,0,24.81,31.74Z" transform="translate(-16.37 -9.3)"/></g></svg>