<svg id="Layer_1" data-name="Layer 1" xmlns="http://www.w3.org/2000/svg" viewBox="0 0 80.99 42.01"><defs><style>.cls-1{fill:#23a3d0;stroke:#fff;stroke-miterlimit:10;}</style></defs><title>inpersonpres</title><g id="xo3GGv.tif"><path class="cls-1" d="M38.48,15a23,23,0,0,1,4,1.52A9.88,9.88,0,1,1,29.6,18.69a10.06,10.06,0,0,1,5.93-3.54,2.33,2.33,0,0,0,.4-.16Z" transform="translate(-8.51 -14.5)"/><path class="cls-1" d="M62.51,15a24.2,24.2,0,0,1,3.68,1.41A9.72,9.72,0,0,1,70.6,28,9.9,9.9,0,1,1,59.39,15.17c.19,0,.38-.11.57-.17Z" transform="translate(-8.51 -14.5)"/><path class="cls-1" d="M50.49,40.35q0,7.83,0,15.67H70.89q.1-3,.16-6c0-.51.15-.74.67-.88a17.5,17.5,0,0,0,7.06-3.83,41.32,41.32,0,0,0,9.78-12.88,3.83,3.83,0,1,0-6.78-3.54,45.46,45.46,0,0,1-6.3,9c-2,2.1-3.42,2.38-5.58,1.47-2-.85-4-1.81-5.92-2.75-1.2-.57-1.19-.59-2.16.28-.18.17-.39.3-.63.49-.49-.45-1-.87-1.44-1.32a1.93,1.93,0,0,0-2.56-.38l-1.92,1c-.19-1.1-.19-1.1,1.12-2a11.51,11.51,0,0,1-5.24-5.11c-.72.37-1.34.94-1.94.93s-1.22-.61-1.84-.94L47,29.38a11.62,11.62,0,0,1-5.17,5.24c2.75,1.59,5.34,3.11,8,4.57A1.13,1.13,0,0,1,50.49,40.35Z" transform="translate(-8.51 -14.5)"/><path class="cls-1" d="M17.59,43.52a19.09,19.09,0,0,0,9.09,5.4.7.7,0,0,1,.65.81c0,1.6,0,3.21.09,4.8,0,.49,0,1,0,1.48H47.9c.05-3.94,0-7.89,0-11.83,0-1.48,0-3,0-4.43,0-.45-.13-.64-.6-.75a6.25,6.25,0,0,1-1.66-.67c-1.48-.84-2.91-1.75-4.39-2.58a2.05,2.05,0,0,0-1.11-.17A4.57,4.57,0,0,0,37.73,37c-.34.28-.61.42-1,0-1.36-1.28-.79-1-2.47-.36a2,2,0,0,0-.4.21.77.77,0,0,1-1.08-.08c-.81-.8-1.63-1.6-2.39-2.45-.3-.33-.51-.47-.93-.24s-1.18.55-1.76.84a3.14,3.14,0,0,0-2,2.82A13.1,13.1,0,0,0,26,39.87a6.47,6.47,0,0,1-1.67-.7,23.09,23.09,0,0,1-2.48-2.38,41.69,41.69,0,0,1-5.6-8.22,3.8,3.8,0,0,0-5.13-1.68,3.9,3.9,0,0,0-1.58,5.41A44.68,44.68,0,0,0,17.59,43.52Z" transform="translate(-8.51 -14.5)"/><path class="cls-1" d="M64.24,35.34c.88-.44,1.6-.78,2.3-1.15a9.78,9.78,0,0,0,3.52-3.29c.32-.49.6-.54,1.08-.29.95.5,2,.9,2.87,1.45a3.52,3.52,0,0,1-3,6.3C68.76,37.46,66.58,36.4,64.24,35.34Z" transform="translate(-8.51 -14.5)"/></g></svg>