<svg id="Layer_1" data-name="Layer 1" xmlns="http://www.w3.org/2000/svg" viewBox="0 0 59 55.61"><defs><style>.cls-1{fill:#23a3d0;stroke:#fff;stroke-miterlimit:10;}</style></defs><title>onlinepres</title><g id="Tc6NF2.tif"><path class="cls-1" d="M49.77,22.87c8.28,0,16.56,0,24.84,0A3.92,3.92,0,0,1,78.78,27c0,11.63,0,23.27,0,34.9a4.18,4.18,0,0,1-4.37,4.34c-6-.06-12,0-18,0-.65,0-.85.18-.86.84a7.94,7.94,0,0,0,1.25,4.79,4.22,4.22,0,0,0,2.73,1.84,14.29,14.29,0,0,1,1.52.29.77.77,0,0,1,.45.54c.05.77,0,1.55,0,2.32,0,.55-.36.65-.83.65H51.06c-4,0-8.08,0-12.11,0-.64,0-.92-.16-.87-.84a17.63,17.63,0,0,0,0-2.05c0-.45.11-.63.6-.67a4.94,4.94,0,0,0,4.51-3A9.26,9.26,0,0,0,44,66.75c0-.37-.15-.54-.53-.53-.55,0-1.09,0-1.64,0-5.47,0-11-.08-16.42,0a4.35,4.35,0,0,1-4.6-4.59c.07-11.47,0-22.95,0-34.42a4.13,4.13,0,0,1,1.71-3.63,4.32,4.32,0,0,1,2.6-.75H49.77ZM49.83,27h-24c-.89,0-.89,0-.89.93q0,14,0,27.92c0,.14,0,.27,0,.41,0,.51.14.79.7.73a4.58,4.58,0,0,1,.48,0H73.59c1,0,1,0,1-1.07q0-14,0-28c0-.9,0-.93-.91-.93Zm.27,31.16a3.32,3.32,0,0,0-3.4,3.31,3.46,3.46,0,0,0,3.3,3.3,3.29,3.29,0,0,0,3.4-3.31A3.2,3.2,0,0,0,50.1,58.16Z" transform="translate(-20.3 -22.37)"/><path class="cls-1" d="M50.12,59.39a2,2,0,0,1,2,2,1.91,1.91,0,0,1-2,2.08,1.88,1.88,0,0,1-2.07-2.08A1.93,1.93,0,0,1,50.12,59.39Z" transform="translate(-20.3 -22.37)"/></g></svg>